<svg xmlns="http://www.w3.org/2000/svg" width="512" height="512" viewBox="0 0 512 512" version="1.1">
	<path d="M 121.058 2.239 C 113.006 6.367, 113 6.401, 113 46.767 C 113 84.120, 113.238 86.286, 117.781 90.332 C 118.912 91.339, 121.787 92.736, 124.169 93.437 C 128.431 94.690, 128.505 94.787, 128.812 99.537 L 129.124 104.364 98.098 135.432 C 69.193 164.376, 64 170.397, 64 174.968 C 64 175.674, 124.683 176, 256 176 C 422.129 176, 448 175.807, 448 174.565 C 448 170.333, 443.245 164.854, 414.942 136.479 L 384 105.458 384 99.857 L 384 94.256 387.876 93.636 C 393.165 92.790, 398.612 86.787, 399.497 80.828 C 399.850 78.448, 399.995 61.570, 399.820 43.321 C 399.514 11.636, 399.407 10.019, 397.438 7.383 C 396.304 5.865, 394.134 3.696, 392.615 2.562 C 389.863 0.507, 389.413 0.499, 257.661 0.239 L 125.468 -0.022 121.058 2.239 M 201.998 242.485 C 174.752 247.921, 152.422 269.737, 146.400 296.804 C 143.936 307.880, 144.835 323.915, 148.535 334.901 C 154.854 353.663, 170.370 370.415, 188.101 377.619 C 200.518 382.665, 203.121 382.877, 256.500 383.199 C 312.685 383.537, 311.986 383.607, 327.500 376.073 C 342.371 368.850, 352.542 358.668, 360.037 343.500 C 365.573 332.296, 367.356 324.575, 367.310 312 C 367.264 299.364, 365.449 291.703, 359.729 280 C 353.980 268.237, 341.145 255.229, 329.287 249.149 C 316.298 242.488, 308.784 241, 288.143 241 L 270.606 241 282.184 252.750 C 294.367 265.115, 295.841 267.701, 294.570 274.477 C 292.913 283.313, 283.272 288.296, 274.315 284.947 C 272.767 284.368, 268.012 280.441, 263.750 276.221 L 256 268.547 248.250 276.221 C 240.026 284.364, 237.154 286, 231.083 286 C 221.562 286, 213.893 273.990, 218.109 265.684 C 218.719 264.483, 224.224 258.438, 230.343 252.250 L 241.467 241 224.984 241.094 C 215.902 241.146, 205.580 241.770, 201.998 242.485 M 64 450.364 C 64 470.835, 64.818 476.095, 69.480 485.602 C 75.717 498.320, 88.166 508.064, 101.799 510.898 C 105.522 511.672, 151.834 512, 257.444 512 C 404.592 512, 407.926 511.958, 414.217 510.015 C 422.809 507.361, 431.913 501.316, 436.989 494.895 C 446.227 483.208, 447.965 476.309, 447.985 451.250 L 448 433 256 433 L 64 433 64 450.364" stroke="none" fill="black" fill-rule="evenodd"/>
</svg>